<svg width="16" height="15" viewBox="0 0 16 15" fill="none" xmlns="http://www.w3.org/2000/svg">
<path d="M6.73464 14.7919C7.03557 15.0765 7.51026 15.0633 7.79489 14.7624C8.07951 14.4614 8.06629 13.9868 7.76536 13.7021L2.52632 8.74702L15.25 8.74702C15.6642 8.74702 16 8.41123 16 7.99702C16 7.58281 15.6642 7.24702 15.25 7.24702L2.52405 7.24702L7.76536 2.28976C8.06629 2.00514 8.07951 1.53045 7.79489 1.22952C7.51026 0.928581 7.03557 0.91536 6.73464 1.19998L0.317415 7.26943C0.151117 7.42671 0.0511157 7.62682 0.0174119 7.83561C0.00600975 7.8876 -3.03651e-07 7.94161 -3.06074e-07 7.99702C-3.08591e-07 8.05461 0.0064923 8.11069 0.0187833 8.16456C0.0537717 8.37035 0.153314 8.56726 0.317415 8.72247L6.73464 14.7919Z" fill="#858585"/>
</svg>
