<svg width="18" height="14" viewBox="0 0 18 14" fill="none" xmlns="http://www.w3.org/2000/svg">
<path d="M0.200195 1.2249C0.200195 0.769267 0.56956 0.399902 1.0252 0.399902H16.9752C17.4308 0.399902 17.8002 0.769267 17.8002 1.2249C17.8002 1.68054 17.4308 2.0499 16.9752 2.0499H1.0252C0.56956 2.0499 0.200195 1.68054 0.200195 1.2249ZM0.200195 6.7249C0.200195 6.26927 0.56956 5.8999 1.0252 5.8999H16.9752C17.4308 5.8999 17.8002 6.26927 17.8002 6.7249C17.8002 7.18054 17.4308 7.5499 16.9752 7.5499H1.0252C0.56956 7.5499 0.200195 7.18054 0.200195 6.7249ZM1.0252 11.3999C0.56956 11.3999 0.200195 11.7693 0.200195 12.2249C0.200195 12.6805 0.56956 13.0499 1.0252 13.0499H16.9752C17.4308 13.0499 17.8002 12.6805 17.8002 12.2249C17.8002 11.7693 17.4308 11.3999 16.9752 11.3999H1.0252Z" fill="#464646"/>
</svg>
