<svg width="17" height="20" viewBox="0 0 17 20" fill="none" xmlns="http://www.w3.org/2000/svg">
<path d="M13.7545 11.9999C14.9966 11.9999 16.0034 13.0068 16.0034 14.2488V14.8242C16.0034 15.7185 15.6838 16.5833 15.1023 17.2627C13.5329 19.0962 11.1457 20.0011 8.00036 20.0011C4.8545 20.0011 2.46849 19.0959 0.902186 17.2617C0.322425 16.5828 0.00390625 15.7193 0.00390625 14.8265L0.00390625 14.2488C0.00390625 13.0068 1.01076 11.9999 2.25278 11.9999L13.7545 11.9999ZM13.7545 13.4999L2.25278 13.4999C1.83919 13.4999 1.50391 13.8352 1.50391 14.2488L1.50391 14.8265C1.50391 15.3622 1.69502 15.8802 2.04287 16.2876C3.29618 17.7553 5.26206 18.5011 8.00036 18.5011C10.7387 18.5011 12.7063 17.7553 13.9627 16.2873C14.3117 15.8797 14.5034 15.3608 14.5034 14.8242V14.2488C14.5034 13.8352 14.1681 13.4999 13.7545 13.4999ZM8.00036 0.00463867C10.7618 0.00463867 13.0004 2.24321 13.0004 5.00464C13.0004 7.76606 10.7618 10.0046 8.00036 10.0046C5.23894 10.0046 3.00036 7.76606 3.00036 5.00464C3.00036 2.24321 5.23894 0.00463867 8.00036 0.00463867ZM8.00036 1.50464C6.06737 1.50464 4.50036 3.07164 4.50036 5.00464C4.50036 6.93764 6.06737 8.50464 8.00036 8.50464C9.93336 8.50464 11.5004 6.93764 11.5004 5.00464C11.5004 3.07164 9.93336 1.50464 8.00036 1.50464Z" fill="#858585"/>
</svg>
