<svg width="26" height="28" viewBox="0 0 26 28" fill="none" xmlns="http://www.w3.org/2000/svg">
<path d="M25.6668 6C25.6668 6.68378 25.1521 7.24734 24.489 7.32436L24.3335 7.33333H23.2072L21.5653 24.0256C21.3807 25.9026 19.8023 27.3333 17.9163 27.3333H8.08407C6.19804 27.3333 4.61963 25.9026 4.43501 24.0256L2.79315 7.33333H1.66683C0.93045 7.33333 0.333496 6.73638 0.333496 6C0.333496 5.26362 0.93045 4.66667 1.66683 4.66667H8.3335C8.3335 2.08934 10.4228 0 13.0002 0C15.5775 0 17.6668 2.08934 17.6668 4.66667H24.3335C25.0699 4.66667 25.6668 5.26362 25.6668 6ZM16.0002 10.3333C15.4939 10.3333 15.0755 10.7095 15.0093 11.1976L15.0002 11.3333V20.6667L15.0093 20.8024C15.0755 21.2905 15.4939 21.6667 16.0002 21.6667C16.5064 21.6667 16.9248 21.2905 16.991 20.8024L17.0002 20.6667V11.3333L16.991 11.1976C16.9248 10.7095 16.5064 10.3333 16.0002 10.3333ZM10.0002 10.3333C9.4939 10.3333 9.07551 10.7095 9.00929 11.1976L9.00016 11.3333V20.6667L9.00929 20.8024C9.07551 21.2905 9.4939 21.6667 10.0002 21.6667C10.5064 21.6667 10.9248 21.2905 10.991 20.8024L11.0002 20.6667V11.3333L10.991 11.1976C10.9248 10.7095 10.5064 10.3333 10.0002 10.3333ZM13.0002 2.66667C11.8956 2.66667 11.0002 3.5621 11.0002 4.66667H15.0002C15.0002 3.5621 14.1047 2.66667 13.0002 2.66667Z" fill="#EDB1CA"/>
</svg>
