<svg width="18" height="18" viewBox="0 0 18 18" fill="none" xmlns="http://www.w3.org/2000/svg">
<path d="M17.25 5.79167V14.2708C17.25 15.9162 15.9162 17.25 14.2708 17.25H3.72917C2.08382 17.25 0.75 15.9162 0.75 14.2708V5.79167H17.25ZM4.64583 11.75C4.01301 11.75 3.5 12.263 3.5 12.8958C3.5 13.5287 4.01301 14.0417 4.64583 14.0417C5.27866 14.0417 5.79167 13.5287 5.79167 12.8958C5.79167 12.263 5.27866 11.75 4.64583 11.75ZM9 11.75C8.36717 11.75 7.85417 12.263 7.85417 12.8958C7.85417 13.5287 8.36717 14.0417 9 14.0417C9.63283 14.0417 10.1458 13.5287 10.1458 12.8958C10.1458 12.263 9.63283 11.75 9 11.75ZM4.64583 7.625C4.01301 7.625 3.5 8.13801 3.5 8.77083C3.5 9.40366 4.01301 9.91667 4.64583 9.91667C5.27866 9.91667 5.79167 9.40366 5.79167 8.77083C5.79167 8.13801 5.27866 7.625 4.64583 7.625ZM9 7.625C8.36717 7.625 7.85417 8.13801 7.85417 8.77083C7.85417 9.40366 8.36717 9.91667 9 9.91667C9.63283 9.91667 10.1458 9.40366 10.1458 8.77083C10.1458 8.13801 9.63283 7.625 9 7.625ZM13.3542 7.625C12.7213 7.625 12.2083 8.13801 12.2083 8.77083C12.2083 9.40366 12.7213 9.91667 13.3542 9.91667C13.987 9.91667 14.5 9.40366 14.5 8.77083C14.5 8.13801 13.987 7.625 13.3542 7.625ZM14.2708 0.75C15.9162 0.75 17.25 2.08382 17.25 3.72917V4.41667H0.75V3.72917C0.75 2.08382 2.08382 0.75 3.72917 0.75H14.2708Z" fill="#858585"/>
</svg>
