<svg width="20" height="20" viewBox="0 0 20 20" fill="none" xmlns="http://www.w3.org/2000/svg">
<path d="M6.00017 14C6.55246 14 7.00017 13.5523 7.00017 13C7.00017 12.4477 6.55246 12 6.00017 12C5.44789 12 5.00017 12.4477 5.00017 13C5.00017 13.5523 5.44789 14 6.00017 14ZM14.9999 13C14.9999 13.5523 14.5522 14 13.9999 14C13.4476 14 12.9999 13.5523 12.9999 13C12.9999 12.4477 13.4476 12 13.9999 12C14.5522 12 14.9999 12.4477 14.9999 13ZM8.75017 3C8.33596 3 8.00017 3.33579 8.00017 3.75C8.00017 4.16421 8.33596 4.5 8.75017 4.5H11.2502C11.6644 4.5 12.0002 4.16421 12.0002 3.75C12.0002 3.33579 11.6644 3 11.2502 3L8.75017 3ZM5.75017 0C3.67911 0 2.00017 1.67893 2.00017 3.75L2.00017 7.5H0.75C0.335786 7.5 0 7.83579 0 8.25C0 8.66421 0.335786 9 0.75 9H2.00017L2.00017 17.75C2.00017 18.7165 2.78367 19.5 3.75017 19.5H5.25017C6.21667 19.5 7.00017 18.7165 7.00017 17.75V16.5L13.0002 16.5L13.0002 17.75C13.0002 18.7165 13.7837 19.5 14.7502 19.5H16.2502C17.2167 19.5 18.0002 18.7165 18.0002 17.75L18.0002 9H19.2275C19.6417 9 19.9775 8.66421 19.9775 8.25C19.9775 7.83579 19.6417 7.5 19.2275 7.5H18.0002V3.75C18.0002 1.67893 16.3212 0 14.2502 0L5.75017 0ZM16.5002 16.5V17.75C16.5002 17.8881 16.3882 18 16.2502 18H14.7502C14.6121 18 14.5002 17.8881 14.5002 17.75L14.5002 16.5H16.5002ZM16.5002 15L3.50017 15L3.50017 11L16.5002 11L16.5002 15ZM3.50017 17.75V16.5H5.50017V17.75C5.50017 17.8881 5.38824 18 5.25017 18H3.75017C3.6121 18 3.50017 17.8881 3.50017 17.75ZM3.50017 3.75C3.50017 2.50736 4.50753 1.5 5.75017 1.5L14.2502 1.5C15.4928 1.5 16.5002 2.50736 16.5002 3.75V9.5L3.50017 9.5L3.50017 3.75Z" fill="#CB3171"/>
</svg>
