<svg width="20" height="19" viewBox="0 0 20 19" fill="none" xmlns="http://www.w3.org/2000/svg">
<path d="M12.754 7C13.7205 7 14.504 7.7835 14.504 8.75V12H14.5V12.25C14.5 12.6642 14.1642 13 13.75 13C13.3358 13 13 12.6642 13 12.25V10H13.004V8.75C13.004 8.61193 12.8921 8.5 12.754 8.5H7.25193C7.11386 8.5 7.00193 8.61193 7.00193 8.75V12H7V12.25C7 12.6642 6.66421 13 6.25 13C5.83579 13 5.5 12.6642 5.5 12.25V10H5.50193V8.75C5.50193 7.7835 6.28543 7 7.25193 7L12.754 7ZM18.5 8.75L18.5 12.25C18.5 12.6642 18.8358 13 19.25 13C19.6642 13 20 12.6642 20 12.25L20 8.75C20 7.7835 19.2165 7 18.25 7L14.8747 6.99906C15.218 7.41447 15.4417 7.93246 15.4928 8.50019L18.25 8.5C18.3881 8.5 18.5 8.61193 18.5 8.75ZM0 12.25C0 12.6642 0.335786 13 0.75 13C1.16421 13 1.5 12.6642 1.5 12.25L1.5 8.75C1.5 8.61193 1.61193 8.5 1.75 8.5L4.51312 8.50019C4.56424 7.93246 4.78791 7.41447 5.13128 6.99906L1.75 7C0.783502 7 0 7.7835 0 8.75L0 12.25ZM10 0C11.6569 0 13 1.34315 13 3C13 4.65685 11.6569 6 10 6C8.34315 6 7 4.65685 7 3C7 1.34315 8.34315 0 10 0ZM10 1.5C9.17157 1.5 8.5 2.17157 8.5 3C8.5 3.82843 9.17157 4.5 10 4.5C10.8284 4.5 11.5 3.82843 11.5 3C11.5 2.17157 10.8284 1.5 10 1.5ZM16.5 1C17.8807 1 19 2.11929 19 3.5C19 4.88071 17.8807 6 16.5 6C15.1193 6 14 4.88071 14 3.5C14 2.11929 15.1193 1 16.5 1ZM16.5 2.5C15.9477 2.5 15.5 2.94772 15.5 3.5C15.5 4.05228 15.9477 4.5 16.5 4.5C17.0523 4.5 17.5 4.05228 17.5 3.5C17.5 2.94772 17.0523 2.5 16.5 2.5ZM3.5 1C4.88071 1 6 2.11929 6 3.5C6 4.88071 4.88071 6 3.5 6C2.11929 6 1 4.88071 1 3.5C1 2.11929 2.11929 1 3.5 1ZM3.5 2.5C2.94772 2.5 2.5 2.94772 2.5 3.5C2.5 4.05228 2.94772 4.5 3.5 4.5C4.05228 4.5 4.5 4.05228 4.5 3.5C4.5 2.94772 4.05228 2.5 3.5 2.5ZM0.75 14C0.335786 14 0 14.3358 0 14.75L0 15.25C0 17.3211 1.67893 19 3.75 19L16.25 19C18.3211 19 20 17.3211 20 15.25V14.75C20 14.3358 19.6642 14 19.25 14L0.75 14ZM3.75 17.5C2.59186 17.5 1.63809 16.625 1.51373 15.5L18.4863 15.5C18.3619 16.625 17.4081 17.5 16.25 17.5L3.75 17.5Z" fill="#858585"/>
</svg>
