<svg width="257" height="71" viewBox="0 0 257 71" fill="none" xmlns="http://www.w3.org/2000/svg">
<path d="M218.184 0V1H221.584C222.391 1 223.163 1.32512 223.728 1.90194L226.296 4.52694L227.011 3.82759L232.148 9.07759L231.433 9.77694L236.57 15.0269L237.284 14.3276L242.421 19.5776L241.706 20.2769L246.843 25.5269L247.558 24.8276L252.695 30.0776L251.98 30.7769L254.548 33.4019C255.689 34.568 255.689 36.432 254.548 37.5981L251.98 40.2231L252.695 40.9224L247.558 46.1724L246.843 45.4731L241.706 50.7231L242.421 51.4224L237.284 56.6724L236.57 55.9731L231.433 61.2231L232.148 61.9224L227.011 67.1724L226.296 66.4731L223.728 69.0981C223.163 69.6749 222.391 70 221.584 70H218.187V71H211.393V70H204.599V71H197.806V70H191.012V71H184.218V70H177.425V71H170.631V70H163.837V71H157.044V70H150.25V71H143.456V70H136.663V71H129.869V70H123.075V71H116.282V70H109.488V71H102.694V70H95.9007V71H89.1071V70H82.3134V71H75.5197V70H68.7261V71H61.9324V70H55.1387V71H48.3451V70H41.5514V71H34.7577V70H27.9641V71H21.1704V70H14.3767V71H7.58307V70H4.18624C2.53265 70 1.19086 68.6619 1.18627 67.0083L1.17532 63.0694L0.17532 63.0722L0.153423 55.1944L1.15342 55.1917L1.13152 47.3139L0.131525 47.3167L0.109627 39.4389L1.10962 39.4361L1.09867 35.4972L1.08773 31.5611L0.0877373 31.5639L0.0658551 23.6917L1.06585 23.6889L1.04397 15.8167L0.0439729 15.8195L0.0220907 7.94723L1.02209 7.94445L1.01115 4.00834C1.00653 2.34823 2.35102 1 4.01113 1H7.41074V0H14.2099V1H21.009V0H27.8081V1H34.6073V0H41.4064V1H48.2055V0H55.0047V1H61.8038V0H68.6029V1H75.4021V0H82.2012V1H89.0004V0H95.7995V1H102.599V0H109.398V1H116.197V0H122.996V1H129.795V0H136.594V1H143.393V0H150.193V1H156.992V0H163.791V1H170.59V0H177.389V1H184.188V0H190.987V1H197.787V0H204.586V1H211.385V0H218.184Z" stroke="#55ABE9" stroke-width="2" stroke-dasharray="7 7"/>
</svg>
