<svg width="18" height="20" viewBox="0 0 18 20" fill="none" xmlns="http://www.w3.org/2000/svg">
<path d="M2.84279 2.56837C6.2432 -0.832036 11.7564 -0.832036 15.1568 2.56837C18.5572 5.96878 18.5572 11.4819 15.1568 14.8823L13.9698 16.0562C13.0949 16.9149 11.9598 18.0188 10.5639 19.3684C9.69169 20.2118 8.30787 20.2117 7.43576 19.3682L3.94466 15.9723C3.5059 15.5415 3.13863 15.1782 2.84279 14.8823C-0.557622 11.4819 -0.557622 5.96878 2.84279 2.56837ZM14.0961 3.62903C11.2815 0.81441 6.71807 0.81441 3.90345 3.62903C1.08882 6.44366 1.08882 11.0071 3.90345 13.8217L5.39052 15.2891C6.20943 16.0906 7.23889 17.091 8.47857 18.29C8.76927 18.5711 9.23055 18.5712 9.5213 18.2901L12.9162 14.9886C13.3851 14.5283 13.7785 14.1393 14.0961 13.8217C16.9107 11.0071 16.9107 6.44366 14.0961 3.62903ZM8.99978 5.99903C10.6575 5.99903 12.0013 7.34287 12.0013 9.00058C12.0013 10.6583 10.6575 12.0021 8.99978 12.0021C7.34207 12.0021 5.99823 10.6583 5.99823 9.00058C5.99823 7.34287 7.34207 5.99903 8.99978 5.99903ZM8.99978 7.49903C8.17049 7.49903 7.49823 8.1713 7.49823 9.00058C7.49823 9.82986 8.17049 10.5021 8.99978 10.5021C9.82906 10.5021 10.5013 9.82986 10.5013 9.00058C10.5013 8.1713 9.82906 7.49903 8.99978 7.49903Z" fill="#CB3171"/>
</svg>
