<svg width="19" height="18" viewBox="0 0 19 18" fill="none" xmlns="http://www.w3.org/2000/svg">
<path d="M10.2498 9.6675C10.8992 9.6675 11.4335 10.1636 11.4941 10.7972L11.4998 10.9175V11.0596C10.9583 10.8028 10.2913 10.8986 9.84342 11.3467L7.76008 13.4309C7.48665 13.7045 7.33309 14.0754 7.33317 14.4622C7.33325 14.849 7.48698 15.2199 7.76053 15.4933L8.32865 16.0612C7.58175 16.2547 6.79586 16.3333 6.08317 16.3333C3.81473 16.3333 0.80375 15.5366 0.671049 12.7747L0.666504 12.5833V10.9167C0.666504 10.2673 1.16256 9.733 1.79618 9.67239L1.9165 9.66667L10.2498 9.6675ZM11.3169 12.8195L10.3008 13.836H16.032L15.0161 12.8194C14.7721 12.5753 14.7722 12.1796 15.0164 11.9356C15.2605 11.6916 15.6563 11.6917 15.9003 11.9358L17.9836 14.0205C18.1008 14.1378 18.1666 14.2968 18.1665 14.4625C18.1665 14.6283 18.1006 14.7872 17.9833 14.9044L15.9 16.9864C15.6558 17.2304 15.2601 17.2303 15.0161 16.9861C14.7721 16.742 14.7722 16.3462 15.0164 16.1022L16.0333 15.086H10.2999L11.3167 16.1023C11.5608 16.3463 11.5609 16.742 11.3169 16.9862C11.0729 17.2303 10.6771 17.2304 10.433 16.9863L8.34966 14.9039C8.23242 14.7867 8.16654 14.6278 8.1665 14.462C8.16647 14.2963 8.23228 14.1373 8.34947 14.02L10.4328 11.9358C10.6768 11.6917 11.0726 11.6916 11.3167 11.9356C11.5608 12.1796 11.5609 12.5754 11.3169 12.8195ZM16.4897 11.3468L17.3331 12.1907L17.3332 12.1667V10.9167L17.3274 10.7962C17.2668 10.162 16.7326 9.66667 16.0832 9.66667H11.9065L12.0007 9.80132C12.2088 10.124 12.3332 10.5047 12.3332 10.9167V12.5833L12.3276 12.8167C12.3246 12.8795 12.3204 12.9415 12.315 13.0026H14.1401C13.8833 12.4611 13.9791 11.794 14.4273 11.3461C14.997 10.7768 15.9204 10.7771 16.4897 11.3468ZM6.08317 0.5C8.154 0.5 9.83317 2.17917 9.83317 4.25C9.83317 6.32083 8.154 8 6.08317 8C4.01234 8 2.33317 6.32083 2.33317 4.25C2.33317 2.17917 4.01234 0.5 6.08317 0.5ZM13.5832 2.16667C15.194 2.16667 16.4998 3.4725 16.4998 5.08333C16.4998 6.69417 15.194 8 13.5832 8C11.9723 8 10.6665 6.69417 10.6665 5.08333C10.6665 3.4725 11.9723 2.16667 13.5832 2.16667Z" fill="#CB3171"/>
</svg>
