<svg width="18" height="18" viewBox="0 0 18 18" fill="none" xmlns="http://www.w3.org/2000/svg">
<path d="M15.6463 8.08488C16.5322 8.08488 17.2504 8.80309 17.2504 9.68905V15.6474C17.2504 16.5333 16.5322 17.2515 15.6463 17.2515H11.5213C10.6353 17.2515 9.9171 16.5333 9.9171 15.6474V9.68905C9.9171 8.80309 10.6353 8.08488 11.5213 8.08488H15.6463ZM6.49628 11.7629C7.38224 11.7629 8.10045 12.4811 8.10045 13.3671V15.6474C8.10045 16.5333 7.38224 17.2515 6.49628 17.2515H2.35807C1.47212 17.2515 0.753906 16.5333 0.753906 15.6474V13.3671C0.753906 12.4811 1.47212 11.7629 2.35807 11.7629H6.49628ZM6.48307 0.75C7.36903 0.75 8.08724 1.46821 8.08724 2.35417V8.3125C8.08724 9.15416 7.43906 9.84443 6.61464 9.91135L6.48307 9.91667H2.35807C1.47212 9.91667 0.753906 9.19846 0.753906 8.3125V2.35417C0.753906 1.46821 1.47212 0.75 2.35807 0.75H6.48307ZM15.6463 0.75C16.5322 0.75 17.2504 1.46821 17.2504 2.35417V4.64583C17.2504 5.53179 16.5322 6.25 15.6463 6.25H11.5213C10.6353 6.25 9.9171 5.53179 9.9171 4.64583V2.35417C9.9171 1.46821 10.6353 0.75 11.5213 0.75H15.6463Z" fill="#858585"/>
</svg>
