<svg width="16" height="17" viewBox="0 0 16 17" fill="none" xmlns="http://www.w3.org/2000/svg">
<path d="M8 0.25C9.43458 0.25 10.6126 1.34848 10.7388 2.75019L15 2.75C15.4142 2.75 15.75 3.08579 15.75 3.5C15.75 3.8797 15.4678 4.19349 15.1018 4.24315L15 4.25H14.417L13.1499 15.2292C13.0335 16.2384 12.179 17 11.1631 17H4.83688C3.821 17 2.9665 16.2384 2.85006 15.2292L1.582 4.25H1C0.620304 4.25 0.306509 3.96785 0.256847 3.60177L0.25 3.5C0.25 3.1203 0.532154 2.80651 0.898229 2.75685L1 2.75L5.26119 2.75019C5.38741 1.34848 6.56542 0.25 8 0.25ZM6.5 6.5C6.25454 6.5 6.05039 6.65477 6.00806 6.85886L6 6.9375V13.0625L6.00806 13.1411C6.05039 13.3452 6.25454 13.5 6.5 13.5C6.74546 13.5 6.94961 13.3452 6.99194 13.1411L7 13.0625V6.9375L6.99194 6.85886C6.94961 6.65477 6.74546 6.5 6.5 6.5ZM9.5 6.5C9.25454 6.5 9.05039 6.65477 9.00806 6.85886L9 6.9375V13.0625L9.00806 13.1411C9.05039 13.3452 9.25454 13.5 9.5 13.5C9.74546 13.5 9.94961 13.3452 9.99194 13.1411L10 13.0625V6.9375L9.99194 6.85886C9.94961 6.65477 9.74546 6.5 9.5 6.5ZM8 1.75C7.39524 1.75 6.89079 2.17947 6.77499 2.75005H9.22501C9.10921 2.17947 8.60476 1.75 8 1.75Z" fill="#CB3171"/>
</svg>
