<svg width="16" height="20" viewBox="0 0 16 20" fill="none" xmlns="http://www.w3.org/2000/svg">
<path d="M8.00033 6.3335V0.833496H2.50033C1.4878 0.833496 0.666992 1.65431 0.666992 2.66683V17.3335C0.666992 18.346 1.4878 19.1668 2.50033 19.1668H13.5003C14.5128 19.1668 15.3337 18.346 15.3337 17.3335V8.16683H9.83366C8.82114 8.16683 8.00033 7.34602 8.00033 6.3335ZM3.41699 10.2293C3.41699 9.84963 3.7248 9.54183 4.10449 9.54183C4.48419 9.54183 4.79199 9.84963 4.79199 10.2293C4.79199 10.609 4.48419 10.9168 4.10449 10.9168C3.7248 10.9168 3.41699 10.609 3.41699 10.2293ZM3.41699 12.9793C3.41699 12.5996 3.7248 12.2918 4.10449 12.2918C4.48419 12.2918 4.79199 12.5996 4.79199 12.9793C4.79199 13.359 4.48419 13.6668 4.10449 13.6668C3.7248 13.6668 3.41699 13.359 3.41699 12.9793ZM3.41699 15.7293C3.41699 15.3496 3.7248 15.0418 4.10449 15.0418C4.48419 15.0418 4.79199 15.3496 4.79199 15.7293C4.79199 16.109 4.48419 16.4168 4.10449 16.4168C3.7248 16.4168 3.41699 16.109 3.41699 15.7293ZM6.16699 10.2293C6.16699 9.84963 6.4748 9.54183 6.85449 9.54183H11.8962C12.2759 9.54183 12.5837 9.84963 12.5837 10.2293C12.5837 10.609 12.2759 10.9168 11.8962 10.9168H6.85449C6.4748 10.9168 6.16699 10.609 6.16699 10.2293ZM6.16699 12.9793C6.16699 12.5996 6.4748 12.2918 6.85449 12.2918H11.8962C12.2759 12.2918 12.5837 12.5996 12.5837 12.9793C12.5837 13.359 12.2759 13.6668 11.8962 13.6668H6.85449C6.4748 13.6668 6.16699 13.359 6.16699 12.9793ZM6.16699 15.7293C6.16699 15.3496 6.4748 15.0418 6.85449 15.0418H11.8962C12.2759 15.0418 12.5837 15.3496 12.5837 15.7293C12.5837 16.109 12.2759 16.4168 11.8962 16.4168H6.85449C6.4748 16.4168 6.16699 16.109 6.16699 15.7293ZM9.37533 6.3335V1.29183L14.8753 6.79183H9.83366C9.58053 6.79183 9.37533 6.58663 9.37533 6.3335Z" fill="#858585"/>
</svg>
