<svg width="20" height="20" viewBox="0 0 20 20" fill="none" xmlns="http://www.w3.org/2000/svg">
<path d="M11.618 4.16607L15.8355 8.38357L15.3244 8.89532C14.5996 8.53544 13.7828 8.3331 12.9187 8.3331C9.92712 8.3331 7.50199 10.7582 7.50199 13.7498C7.50199 14.6138 7.70429 15.4305 8.0641 16.1553L7.55366 16.6653C7.32293 16.896 7.03598 17.0626 6.72118 17.1484L2.45811 18.3111C1.99155 18.4383 1.56344 18.0102 1.69068 17.5436L2.85334 13.2806C2.93919 12.9658 3.10572 12.6788 3.33645 12.4481L11.618 4.16607ZM12.9187 9.16643C13.1629 9.16643 13.4025 9.18688 13.636 9.22622L13.7804 9.82293C13.9962 10.7177 14.8966 11.2682 15.7914 11.0524L15.8729 11.0305L16.3738 10.8815C16.6759 11.2706 16.9179 11.7119 17.0852 12.1902L16.7125 12.5488C16.0841 13.1534 16.0328 14.1322 16.5718 14.7975L16.6896 14.9283L17.0852 15.3093C16.918 15.7873 16.6763 16.2283 16.3744 16.6172L15.8729 16.469C14.9901 16.2082 14.0631 16.7124 13.8023 17.5951L13.7804 17.6766L13.636 18.2733C13.4025 18.3126 13.1629 18.3331 12.9187 18.3331C12.6742 18.3331 12.4343 18.3126 12.2006 18.2732L12.0569 17.6766C11.8411 16.7818 10.9407 16.2313 10.0459 16.4471L9.96444 16.469L9.46288 16.6172C9.16104 16.2283 8.91927 15.7873 8.75214 15.3093L9.12483 14.9508C9.78813 14.3125 9.80845 13.2575 9.17024 12.5942L9.12483 12.5488L8.75214 12.1902C8.91927 11.7122 9.16104 11.2712 9.46288 10.8823L9.96444 11.0305C10.8472 11.2913 11.7742 10.7872 12.035 9.90442L12.0569 9.82293L12.2006 9.22635C12.4343 9.18693 12.6742 9.16643 12.9187 9.16643ZM12.9187 12.4998C12.2515 12.4998 11.7106 13.0594 11.7106 13.7498C11.7106 14.4401 12.2515 14.9998 12.9187 14.9998C13.5859 14.9998 14.1267 14.4401 14.1267 13.7498C14.1267 13.0594 13.5859 12.4998 12.9187 12.4998ZM17.5273 2.47449C18.6918 3.63904 18.6918 5.52715 17.5273 6.69171L16.7188 7.49941L12.5013 3.28274L13.3101 2.47449C14.4746 1.30994 16.3627 1.30994 17.5273 2.47449Z" fill="#CB3171"/>
</svg>
