<svg width="20" height="20" viewBox="0 0 20 20" fill="none" xmlns="http://www.w3.org/2000/svg">
<path d="M5.5 9C8.53757 9 11 11.4624 11 14.5C11 17.5376 8.53757 20 5.5 20C2.46243 20 0 17.5376 0 14.5C0 11.4624 2.46243 9 5.5 9ZM16.75 0C18.5449 0 20 1.45507 20 3.25V14.75C20 16.5449 18.5449 18 16.75 18L10.9774 18.0012C11.2743 17.5378 11.5139 17.0342 11.6864 16.5004L16.75 16.5C17.7165 16.5 18.5 15.7165 18.5 14.75V3.25C18.5 2.2835 17.7165 1.5 16.75 1.5H5.25C4.2835 1.5 3.5 2.2835 3.5 3.25L3.49958 8.31364C2.9658 8.48611 2.46222 8.72575 1.99879 9.02259L2 3.25C2 1.45507 3.45507 0 5.25 0H16.75ZM5.5 14.5H2.5C2.25454 14.5 2.05039 14.6769 2.00806 14.9101L2 15V15.4959C2 16.4904 2.75658 16.9936 4 16.9936C5.18121 16.9936 5.92312 16.5399 5.99436 15.6423L6 15.4969V15C6 14.7239 5.77614 14.5 5.5 14.5ZM8.52012 14.4862L6.90914 14.4847C6.95323 14.6052 6.98229 14.733 6.99407 14.8657L7 15V15.4969L6.99279 15.7089C6.97362 15.9853 6.91658 16.237 6.82524 16.4639C6.9588 16.4777 7.10073 16.4845 7.25029 16.4845C8.27626 16.4845 8.94293 16.1646 9.01384 15.4488L9.02012 15.3183V14.9862C9.02012 14.7407 8.84325 14.5366 8.61 14.4942L8.52012 14.4862ZM4 11.5C3.44677 11.5 2.99829 11.9485 2.99829 12.5017C2.99829 13.0549 3.44677 13.5034 4 13.5034C4.55323 13.5034 5.00171 13.0549 5.00171 12.5017C5.00171 11.9485 4.55323 11.5 4 11.5ZM7.13031 11.7574C6.64811 11.7574 6.25721 12.1483 6.25721 12.6305C6.25721 13.1127 6.64811 13.5036 7.13031 13.5036C7.61251 13.5036 8.00341 13.1127 8.00341 12.6305C8.00341 12.1483 7.61251 11.7574 7.13031 11.7574ZM10.75 3C11.1297 3 11.4435 3.28215 11.4932 3.64823L11.5 3.75V9H15.2483C15.6625 9 15.9983 9.33579 15.9983 9.75C15.9983 10.1297 15.7161 10.4435 15.35 10.4932L15.2483 10.5H10.75C10.7027 10.5 10.6564 10.4956 10.6115 10.4872C10.4259 10.2482 10.2226 10.0237 10.0048 9.81421L10 9.75V3.75C10 3.33579 10.3358 3 10.75 3Z" fill="#212121"/>
</svg>
