<svg width="16" height="17" viewBox="0 0 16 17" fill="none" xmlns="http://www.w3.org/2000/svg">
<path d="M8 0C8.10743 0 8.21388 0.00423543 8.31918 0.0125484C6.91572 1.00915 6 2.64764 6 4.5C6 5.81685 6.46279 7.02561 7.2346 7.9725L6.5 8.70711V10.4C6.5 10.7314 6.23137 11 5.9 11H4V12.4C4 12.7314 3.73137 13 3.4 13H0.6C0.268629 13 0 12.7314 0 12.4V9.54142C0 9.3823 0.0632109 9.22968 0.175742 9.11715L4.16219 5.13071C4.05656 4.77171 4 4.39211 4 4C4 1.79086 5.79086 0 8 0ZM7 4.5C7 2.01472 9.01472 0 11.5 0C13.9853 0 16 2.01472 16 4.5C16 6.06086 15.2051 7.43554 14 8.24215V10.2929L14.7828 11.0757C15.0172 11.31 15.0172 11.6899 14.7828 11.9243L13.7071 13L14.7746 14.0674C15.0274 14.3203 15.0043 14.7368 14.7251 14.9602L12.3748 16.8405C12.1557 17.0158 11.8443 17.0158 11.6252 16.8405L9.22518 14.9205C9.08285 14.8066 9 14.6342 9 14.4519V8.24215C7.7949 7.43554 7 6.06086 7 4.5ZM12.25 3.5C12.25 3.08579 11.9142 2.75 11.5 2.75C11.0858 2.75 10.75 3.08579 10.75 3.5C10.75 3.91421 11.0858 4.25 11.5 4.25C11.9142 4.25 12.25 3.91421 12.25 3.5Z" fill="#858585"/>
</svg>
