<svg width="20" height="18" viewBox="0 0 20 18" fill="none" xmlns="http://www.w3.org/2000/svg">
<path d="M8.90008 2.40021C8.59632 2.40021 8.35007 2.64646 8.35007 2.95022C8.35007 3.25398 8.59632 3.50022 8.90008 3.50022H11.1001C11.4039 3.50022 11.6501 3.25398 11.6501 2.95022C11.6501 2.64646 11.4039 2.40021 11.1001 2.40021H8.90008ZM2.30003 4.05023C2.30003 1.92391 4.02374 0.200195 6.15006 0.200195H13.8501C15.9764 0.200195 17.7001 1.92391 17.7001 4.05023V6.80025H18.8002C19.1039 6.80025 19.3502 7.04649 19.3502 7.35025C19.3502 7.65401 19.1039 7.90026 18.8002 7.90026H17.7001V16.1503C17.7001 17.0616 16.9614 17.8003 16.0501 17.8003H14.9501C14.0389 17.8003 13.3001 17.0616 13.3001 16.1503V15.6003H6.70006V16.1503C6.70006 17.0616 5.96133 17.8003 5.05005 17.8003H3.95004C3.03876 17.8003 2.30003 17.0616 2.30003 16.1503V7.90026H1.20002C0.896258 7.90026 0.650013 7.65401 0.650013 7.35025C0.650013 7.04649 0.896258 6.80025 1.20002 6.80025H2.30003V4.05023ZM16.6001 4.05023C16.6001 2.53143 15.3689 1.3002 13.8501 1.3002H6.15006C4.63126 1.3002 3.40004 2.53143 3.40004 4.05023V9.00027H16.6001V4.05023ZM14.4001 15.6003V16.1503C14.4001 16.4541 14.6464 16.7003 14.9501 16.7003H16.0501C16.3539 16.7003 16.6001 16.4541 16.6001 16.1503V15.6003H14.4001ZM3.40004 15.6003V16.1503C3.40004 16.4541 3.64628 16.7003 3.95004 16.7003H5.05005C5.35381 16.7003 5.60005 16.4541 5.60005 16.1503V15.6003H3.40004ZM7.80007 12.3003C7.80007 11.6928 7.30758 11.2003 6.70006 11.2003C6.09254 11.2003 5.60005 11.6928 5.60005 12.3003C5.60005 12.9078 6.09254 13.4003 6.70006 13.4003C7.30758 13.4003 7.80007 12.9078 7.80007 12.3003ZM13.3001 13.4003C13.9076 13.4003 14.4001 12.9078 14.4001 12.3003C14.4001 11.6928 13.9076 11.2003 13.3001 11.2003C12.6926 11.2003 12.2001 11.6928 12.2001 12.3003C12.2001 12.9078 12.6926 13.4003 13.3001 13.4003Z" fill="#CB3171"/>
</svg>
