<svg width="12" height="16" viewBox="0 0 12 16" fill="none" xmlns="http://www.w3.org/2000/svg">
<path d="M5.4501 0.299805C5.72011 0.299805 5.94467 0.494369 5.99124 0.750945L6.00011 0.849809V4.14984C6.00011 5.4801 5.05557 6.58976 3.80057 6.84475L3.80009 15.1499C3.80009 15.4537 3.55384 15.6999 3.25008 15.6999C2.98008 15.6999 2.75551 15.5054 2.70894 15.2488L2.70008 15.1499L2.70071 6.84498C1.50494 6.60254 0.590774 5.58426 0.506422 4.33836L0.500061 4.14984V0.849809C0.500061 0.54605 0.746306 0.299805 1.05007 0.299805C1.32007 0.299805 1.54464 0.494369 1.59121 0.750945L1.60007 0.849809V4.14984C1.60007 4.86838 2.05937 5.47965 2.7004 5.70607L2.70008 0.849809C2.70008 0.54605 2.94632 0.299805 3.25008 0.299805C3.52009 0.299805 3.74466 0.494369 3.79123 0.750945L3.80009 0.849809L3.80086 5.70569C4.39205 5.4964 4.82844 4.9597 4.89208 4.31353L4.9001 4.14984V0.849809C4.9001 0.54605 5.14634 0.299805 5.4501 0.299805ZM10.9501 0.299805C11.2202 0.299805 11.4447 0.494369 11.4913 0.750945L11.5001 0.849809V15.1499C11.5001 15.4537 11.2539 15.6999 10.9501 15.6999C10.6801 15.6999 10.4556 15.5054 10.409 15.2488L10.4001 15.1499V9.09988H8.75013C8.48012 9.09988 8.25555 8.90531 8.20898 8.64873L8.20012 8.54987V3.04983C8.20012 1.53103 9.43135 0.299805 10.9501 0.299805Z" fill="#CB3171"/>
</svg>
