<svg width="19" height="18" viewBox="0 0 19 18" fill="none" xmlns="http://www.w3.org/2000/svg">
<path d="M10.1001 4.05023C10.1001 1.92391 8.37638 0.200195 6.25007 0.200195C4.12375 0.200195 2.40004 1.92391 2.40004 4.05023C2.40004 6.17654 4.12375 7.90026 6.25007 7.90026C8.37638 7.90026 10.1001 6.17654 10.1001 4.05023ZM13.9501 7.90026C14.1341 7.90026 14.3138 7.88219 14.4877 7.84774C15.1235 7.72174 15.6805 7.37654 16.0766 6.89419C16.4662 6.4196 16.7002 5.81224 16.7002 5.15024C16.7002 3.63144 15.4689 2.40021 13.9501 2.40021C12.4313 2.40021 11.2001 3.63144 11.2001 5.15024C11.2001 6.66903 12.4313 7.90026 13.9501 7.90026ZM10.0759 13.8152L15.3884 8.5028C16.1917 7.69941 17.4943 7.69941 18.2977 8.5028C19.1011 9.30619 19.1011 10.6087 18.2977 11.4121L12.9853 16.7245C12.6755 17.0343 12.2874 17.254 11.8625 17.3602L10.2148 17.7722C9.49823 17.9513 8.84917 17.3023 9.02831 16.5857L9.44017 14.938C9.5464 14.513 9.76614 14.1249 10.0759 13.8152ZM10.1001 9.00027C10.9749 9.00027 11.7305 9.51091 12.085 10.2504L9.29805 13.0374C8.84734 13.4881 8.52759 14.0528 8.373 14.6712L7.96107 16.3189C7.9387 16.4084 7.92241 16.4974 7.91187 16.5856C7.39625 16.6609 6.84123 16.7003 6.25007 16.7003C2.49689 16.7003 0.200018 15.1102 0.200018 12.8503V11.2003C0.200018 9.98525 1.185 9.00027 2.40004 9.00027H10.1001Z" fill="#CB3171"/>
</svg>
