<svg width="19" height="18" viewBox="0 0 19 18" fill="none" xmlns="http://www.w3.org/2000/svg">
<path d="M10.1003 4.05023C10.1003 1.92391 8.37656 0.200195 6.25024 0.200195C4.12393 0.200195 2.40021 1.92391 2.40021 4.05023C2.40021 6.17654 4.12393 7.90026 6.25024 7.90026C8.37656 7.90026 10.1003 6.17654 10.1003 4.05023ZM13.9503 7.90026C14.1343 7.90026 14.314 7.88219 14.4879 7.84774C15.1237 7.72174 15.6807 7.37654 16.0767 6.89419C16.4664 6.4196 16.7003 5.81224 16.7003 5.15024C16.7003 3.63144 15.4691 2.40021 13.9503 2.40021C12.4315 2.40021 11.2003 3.63144 11.2003 5.15024C11.2003 6.66903 12.4315 7.90026 13.9503 7.90026ZM10.076 13.8152L15.3885 8.5028C16.1919 7.69941 17.4945 7.69941 18.2979 8.5028C19.1013 9.30619 19.1013 10.6087 18.2979 11.4121L12.9854 16.7245C12.6757 17.0343 12.2876 17.254 11.8627 17.3602L10.215 17.7722C9.49841 17.9513 8.84935 17.3023 9.02849 16.5857L9.44034 14.938C9.54658 14.513 9.76631 14.1249 10.076 13.8152ZM10.1003 9.00027C10.9751 9.00027 11.7307 9.51091 12.0852 10.2504L9.29823 13.0374C8.84751 13.4881 8.52777 14.0528 8.37318 14.6712L7.96125 16.3189C7.93888 16.4084 7.92259 16.4974 7.91205 16.5856C7.39643 16.6609 6.8414 16.7003 6.25024 16.7003C2.49706 16.7003 0.200195 15.1102 0.200195 12.8503V11.2003C0.200195 9.98525 1.18518 9.00027 2.40021 9.00027H10.1003Z" fill="#858585"/>
</svg>
