<svg width="40" height="40" viewBox="0 0 40 40" fill="none" xmlns="http://www.w3.org/2000/svg">
<circle cx="20" cy="20" r="19" stroke="#858585" stroke-width="2" stroke-dasharray="10 10"/>
<path d="M18.3241 24.4292V23.245C18.3241 22.4915 18.4253 21.8636 18.6276 21.3612C18.8299 20.8409 19.0912 20.4013 19.4115 20.0425C19.7318 19.6657 20.069 19.3338 20.423 19.0467C20.7939 18.7597 21.1395 18.4816 21.4598 18.2125C21.7801 17.9254 22.0414 17.6025 22.2437 17.2436C22.446 16.8848 22.5471 16.4542 22.5471 15.9518C22.5471 15.1445 22.2858 14.5345 21.7632 14.1218C21.2575 13.6912 20.5494 13.4759 19.6391 13.4759C18.6107 13.4759 17.8268 13.763 17.2874 14.3371C16.7479 14.8933 16.4782 15.6917 16.4782 16.7323H14C14.0169 15.5123 14.2613 14.4806 14.7333 13.6374C15.2222 12.7762 15.8881 12.1213 16.731 11.6728C17.5908 11.2243 18.5686 11 19.6644 11C20.659 11 21.5525 11.1704 22.3448 11.5113C23.154 11.8522 23.7946 12.3905 24.2667 13.1261C24.7556 13.8617 25 14.8215 25 16.0057C25 16.7771 24.8904 17.432 24.6713 17.9703C24.469 18.4906 24.2077 18.9391 23.8874 19.3159C23.567 19.6747 23.2215 19.9887 22.8506 20.2578C22.4966 20.5269 22.151 20.805 21.8138 21.0921C21.4935 21.3791 21.2238 21.711 21.0046 22.0878C20.8023 22.4466 20.7011 22.9042 20.7011 23.4603V24.4292H18.3241ZM18.0207 30V26.6091H21.1057V30H18.0207Z" fill="#858585"/>
</svg>
