<svg width="18" height="18" viewBox="0 0 18 18" fill="none" xmlns="http://www.w3.org/2000/svg">
<path d="M10.616 3.16607L14.8335 7.38357L14.3225 7.89532C13.5977 7.53544 12.7808 7.3331 11.9167 7.3331C8.92516 7.3331 6.50004 9.75822 6.50004 12.7498C6.50004 13.6138 6.70234 14.4305 7.06215 15.1553L6.55171 15.6653C6.32098 15.896 6.03403 16.0626 5.71923 16.1484L1.45615 17.3111C0.989593 17.4383 0.561484 17.0102 0.688728 16.5436L1.85139 12.2806C1.93724 11.9658 2.10376 11.6788 2.33449 11.4481L10.616 3.16607ZM11.9167 8.16643C12.1609 8.16643 12.4005 8.18688 12.634 8.22622L12.7785 8.82293C12.9943 9.71775 13.8946 10.2682 14.7894 10.0524L14.8709 10.0305L15.3718 9.88146C15.674 10.2706 15.916 10.7119 16.0832 11.1902L15.7105 11.5488C15.0822 12.1534 15.0308 13.1322 15.5698 13.7975L15.6876 13.9283L16.0832 14.3093C15.9161 14.7873 15.6743 15.2283 15.3725 15.6172L14.8709 15.469C13.9882 15.2082 13.0611 15.7124 12.8003 16.5951L12.7785 16.6766L12.634 17.2733C12.4005 17.3126 12.1609 17.3331 11.9167 17.3331C11.6722 17.3331 11.4323 17.3126 11.1986 17.2732L11.0549 16.6766C10.8391 15.7818 9.93879 15.2313 9.04397 15.4471L8.96249 15.469L8.46092 15.6172C8.15909 15.2283 7.91732 14.7873 7.75018 14.3093L8.12288 13.9508C8.78617 13.3125 8.8065 12.2575 8.16829 11.5942L8.12288 11.5488L7.75018 11.1902C7.91732 10.7122 8.15909 10.2712 8.46092 9.88229L8.96249 10.0305C9.84524 10.2913 10.7723 9.78717 11.0331 8.90442L11.0549 8.82293L11.1986 8.22635C11.4323 8.18693 11.6722 8.16643 11.9167 8.16643ZM11.9167 11.4998C11.2495 11.4998 10.7086 12.0594 10.7086 12.7498C10.7086 13.4401 11.2495 13.9998 11.9167 13.9998C12.5839 13.9998 13.1248 13.4401 13.1248 12.7498C13.1248 12.0594 12.5839 11.4998 11.9167 11.4998ZM16.5253 1.47449C17.6899 2.63904 17.6899 4.52715 16.5253 5.69171L15.7168 6.49941L11.4993 2.28274L12.3081 1.47449C13.4727 0.309936 15.3608 0.309936 16.5253 1.47449Z" fill="#CB3171"/>
</svg>
