<svg width="18" height="20" viewBox="0 0 18 20" fill="none" xmlns="http://www.w3.org/2000/svg">
<path d="M8.00033 0.833496V6.3335C8.00033 7.34602 8.82114 8.16683 9.83366 8.16683H14.3444C13.7974 8.36811 13.2946 8.67477 12.9156 9.05639L7.36914 14.6406C7.04677 14.9652 6.81651 15.3696 6.70198 15.8125L6.22088 17.6728C6.07983 18.2182 6.18242 18.7448 6.44268 19.1668H2.04199C1.2826 19.1668 0.666992 18.5512 0.666992 17.7918V2.2085C0.666992 1.4491 1.2826 0.833496 2.04199 0.833496H8.00033ZM9.37533 1.29183V6.3335C9.37533 6.58663 9.58053 6.79183 9.83366 6.79183H14.8753L9.37533 1.29183ZM8.17968 15.1077L13.5902 9.69717C14.4085 8.87894 15.7351 8.87894 16.5533 9.69717C17.3715 10.5154 17.3715 11.842 16.5533 12.6602L11.1428 18.0708C10.8273 18.3863 10.432 18.61 9.99924 18.7182L8.32109 19.1378C7.59129 19.3202 6.93025 18.6592 7.1127 17.9294L7.53223 16.2512C7.64043 15.8184 7.86423 15.4232 8.17968 15.1077Z" fill="#858585"/>
</svg>
