<svg width="27" height="26" viewBox="0 0 27 26" fill="none" xmlns="http://www.w3.org/2000/svg">
<path d="M13.5 0.498779C20.4046 0.498779 26.0019 6.09609 26.0019 13.0007C26.0019 19.9053 20.4046 25.5027 13.5 25.5027C6.59536 25.5027 0.998047 19.9053 0.998047 13.0007C0.998047 6.09609 6.59536 0.498779 13.5 0.498779ZM13.5 2.37378C7.63089 2.37378 2.87305 7.13162 2.87305 13.0007C2.87305 18.8698 7.63089 23.6277 13.5 23.6277C19.3691 23.6277 24.1269 18.8698 24.1269 13.0007C24.1269 7.13162 19.3691 2.37378 13.5 2.37378ZM13.4954 11.1245C13.9701 11.1242 14.3625 11.4766 14.4249 11.9342L14.4335 12.0614L14.438 18.9384C14.4384 19.4562 14.0189 19.8762 13.5012 19.8765C13.0265 19.8768 12.6341 19.5244 12.5717 19.0668L12.563 18.9396L12.5585 12.0626C12.5582 11.5449 12.9777 11.1248 13.4954 11.1245ZM13.5005 6.7523C14.19 6.7523 14.7489 7.3112 14.7489 8.00063C14.7489 8.69006 14.19 9.24896 13.5005 9.24896C12.8111 9.24896 12.2522 8.69006 12.2522 8.00063C12.2522 7.3112 12.8111 6.7523 13.5005 6.7523Z" fill="#CB3171"/>
</svg>
