<svg width="40" height="40" viewBox="0 0 40 40" fill="none" xmlns="http://www.w3.org/2000/svg">
<circle cx="20" cy="20" r="19" stroke="#858585" stroke-width="2" stroke-dasharray="10 10"/>
<path d="M18.5379 23.3088V22.3116C18.5379 21.6771 18.6207 21.1483 18.7862 20.7252C18.9517 20.2871 19.1655 19.9169 19.4276 19.6147C19.6897 19.2975 19.9655 19.0179 20.2552 18.7762C20.5586 18.5345 20.8414 18.3003 21.1034 18.0737C21.3655 17.8319 21.5793 17.56 21.7448 17.2578C21.9103 16.9556 21.9931 16.593 21.9931 16.17C21.9931 15.4901 21.7793 14.9764 21.3517 14.6289C20.9379 14.2663 20.3586 14.085 19.6138 14.085C18.7724 14.085 18.131 14.3267 17.6897 14.8102C17.2483 15.2786 17.0276 15.9509 17.0276 16.8272H15C15.0138 15.7998 15.2138 14.9311 15.6 14.221C16 13.4958 16.5448 12.9443 17.2345 12.5666C17.9379 12.1889 18.7379 12 19.6345 12C20.4483 12 21.1793 12.1435 21.8276 12.4306C22.4897 12.7177 23.0138 13.1709 23.4 13.7904C23.8 14.4098 24 15.2181 24 16.2153C24 16.865 23.9103 17.4164 23.731 17.8697C23.5655 18.3078 23.3517 18.6856 23.0897 19.0028C22.8276 19.305 22.5448 19.5694 22.2414 19.796C21.9517 20.0227 21.669 20.2568 21.3931 20.4986C21.131 20.7403 20.9103 21.0198 20.731 21.3371C20.5655 21.6393 20.4828 22.0246 20.4828 22.4929V23.3088H18.5379ZM18.2897 28V25.1445H20.8138V28H18.2897Z" fill="#858585"/>
</svg>
