<svg width="18" height="20" viewBox="0 0 18 20" fill="none" xmlns="http://www.w3.org/2000/svg">
<path d="M9.75 0C10.9084 0 11.8623 0.875366 11.9863 2.00068L11.9862 1.99944L13.75 2C14.9926 2 16 3.00736 16 4.25L16 12.522L14.5 9.19422L14.5 4.25C14.5 3.83579 14.1642 3.5 13.75 3.5L11.621 3.50016C11.2174 4.10307 10.53 4.5 9.75 4.5L6.25 4.5C5.46997 4.5 4.78267 4.1031 4.37902 3.5002L2.25 3.5C1.83579 3.5 1.5 3.83579 1.5 4.25L1.5 17.75C1.5 18.1642 1.83579 18.5 2.25 18.5H7.30049L7.12745 18.8848C6.96265 19.2513 6.95708 19.6489 7.08127 20H2.25C1.00736 20 0 18.9926 0 17.75L0 4.25C0 3.00736 1.00736 2 2.25 2L4.01379 1.99944C4.13841 0.874722 5.09205 0 6.25 0L9.75 0ZM11.9948 2.09595L12 2.25C12 2.19822 11.9983 2.14685 11.9948 2.09595ZM9.75 1.5L6.25 1.5C5.83579 1.5 5.5 1.83579 5.5 2.25C5.5 2.66421 5.83579 3 6.25 3L9.75 3C10.1642 3 10.5 2.66421 10.5 2.25C10.5 1.83579 10.1642 1.5 9.75 1.5ZM13.4483 9.29453C13.3675 9.11519 13.189 8.99991 12.9923 9C12.7956 9.00009 12.6172 9.11552 12.5365 9.29493L9.84269 15.2851C9.83951 15.2918 9.83648 15.2985 9.83359 15.3053L8.03947 19.2949C7.92622 19.5468 8.03857 19.8428 8.29042 19.956C8.54226 20.0693 8.83824 19.9569 8.9515 19.7051L10.6177 16L15.3739 16L17.0441 19.7055C17.1576 19.9572 17.4537 20.0693 17.7054 19.9558C17.9572 19.8424 18.0693 19.5463 17.9558 19.2945L16.1575 15.3049C16.1546 15.2981 16.1516 15.2914 16.1484 15.2847L13.4483 9.29453ZM14.9232 15H11.0674L12.993 10.7179L14.9232 15Z" fill="#858585"/>
</svg>
