<svg width="21" height="21" viewBox="0 0 21 21" fill="none" xmlns="http://www.w3.org/2000/svg">
<path d="M10.5 0.75C10.5 0.335786 10.1642 0 9.75 0C9.33579 0 9 0.335786 9 0.75V1L3.25 1C1.45507 1 0 2.45507 0 4.25L0 13.75C0 15.5449 1.45507 17 3.25 17H5.64847L4.17333 18.7699C3.90813 19.0881 3.95109 19.561 4.26928 19.8262C4.58747 20.0914 5.0604 20.0485 5.32559 19.7303L7.60114 17H10.0292C10.0098 16.8348 10 16.668 10 16.5V16C10 15.8288 10.0172 15.6616 10.05 15.5L3.25 15.5C2.2835 15.5 1.5 14.7165 1.5 13.75L1.5 4.25C1.5 3.2835 2.2835 2.5 3.25 2.5L16.75 2.5C17.7165 2.5 18.5 3.2835 18.5 4.25V7.95487C19.2672 8.64152 19.75 9.63938 19.75 10.75C19.75 10.834 19.7472 10.9174 19.7418 11H20V4.25C20 2.45507 18.5449 1 16.75 1L10.5 1V0.75ZM18.7388 11C18.7462 10.9177 18.75 10.8343 18.75 10.75C18.75 10.3405 18.6605 9.95194 18.5 9.60276C18.0652 8.65681 17.1093 8 16 8C14.4812 8 13.25 9.23122 13.25 10.75C13.25 12.2688 14.4812 13.5 16 13.5C17.4345 13.5 18.6125 12.4016 18.7388 11ZM19.5 14.5C19.6385 14.5 19.7725 14.5188 19.8998 14.5539C20.5341 14.7289 21 15.31 21 16V16.5C21 18.4714 19.1405 20.5 16 20.5C13.125 20.5 11.3236 18.8 11.0395 17C11.0133 16.8338 11 16.6667 11 16.5V16C11 15.8247 11.0301 15.6564 11.0854 15.5C11.2913 14.9174 11.8469 14.5 12.5 14.5L19.5 14.5ZM4 5.75C4 5.33579 4.33579 5 4.75 5L8.75 5C9.16421 5 9.5 5.33579 9.5 5.75C9.5 6.16421 9.16421 6.5 8.75 6.5L4.75 6.5C4.33579 6.5 4 6.16421 4 5.75ZM4.75 8C4.33579 8 4 8.33579 4 8.75C4 9.16421 4.33579 9.5 4.75 9.5L11.25 9.5C11.6642 9.5 12 9.16421 12 8.75C12 8.33579 11.6642 8 11.25 8L4.75 8ZM4 11.75C4 11.3358 4.33579 11 4.75 11L10.25 11C10.6642 11 11 11.3358 11 11.75C11 12.1642 10.6642 12.5 10.25 12.5L4.75 12.5C4.33579 12.5 4 12.1642 4 11.75Z" fill="#858585"/>
</svg>
