<svg width="26" height="28" viewBox="0 0 26 28" fill="none" xmlns="http://www.w3.org/2000/svg">
<path d="M25.6663 6C25.6663 6.68378 25.1516 7.24734 24.4885 7.32436L24.333 7.33333H23.2067L21.5648 24.0256C21.3802 25.9026 19.8018 27.3333 17.9158 27.3333H8.08358C6.19755 27.3333 4.61915 25.9026 4.43453 24.0256L2.79266 7.33333H1.66634C0.929962 7.33333 0.333008 6.73638 0.333008 6C0.333008 5.26362 0.929962 4.66667 1.66634 4.66667H8.33301C8.33301 2.08934 10.4223 0 12.9997 0C15.577 0 17.6663 2.08934 17.6663 4.66667H24.333C25.0694 4.66667 25.6663 5.26362 25.6663 6ZM15.9997 10.3333C15.4934 10.3333 15.075 10.7095 15.0088 11.1976L14.9997 11.3333V20.6667L15.0088 20.8024C15.075 21.2905 15.4934 21.6667 15.9997 21.6667C16.5059 21.6667 16.9243 21.2905 16.9905 20.8024L16.9997 20.6667V11.3333L16.9905 11.1976C16.9243 10.7095 16.5059 10.3333 15.9997 10.3333ZM9.99968 10.3333C9.49341 10.3333 9.07502 10.7095 9.0088 11.1976L8.99968 11.3333V20.6667L9.0088 20.8024C9.07502 21.2905 9.49341 21.6667 9.99968 21.6667C10.5059 21.6667 10.9243 21.2905 10.9905 20.8024L10.9997 20.6667V11.3333L10.9905 11.1976C10.9243 10.7095 10.5059 10.3333 9.99968 10.3333ZM12.9997 2.66667C11.8951 2.66667 10.9997 3.5621 10.9997 4.66667H14.9997C14.9997 3.5621 14.1042 2.66667 12.9997 2.66667Z" fill="#CB3171"/>
</svg>
