<svg width="48" height="48" viewBox="0 0 48 48" fill="none" xmlns="http://www.w3.org/2000/svg">
<rect width="48" height="48" rx="10" fill="#EDEDED"/>
<path d="M26.5 25.4437L26.6547 25.59L32.4832 31.4567L32.4935 31.3792L32.5 31.2514V25.749C32.5 25.3348 32.8358 24.999 33.25 24.999C33.6297 24.999 33.9435 25.2812 33.9932 25.6473L34 25.749V31.2514C34 32.7139 32.8583 33.9098 31.4175 33.9963L31.25 34.0014H25.75C25.3358 34.0014 25 33.6656 25 33.2514C25 32.8717 25.2822 32.5579 25.6482 32.5082L25.75 32.5014H31.25C31.2994 32.5014 31.3482 32.4985 31.3961 32.4929L25.594 26.6507C24.7572 25.8138 23.4252 25.774 22.5412 26.5311L22.4121 26.6507L16.5456 32.4847L16.6222 32.4949L16.75 32.5014H22.25L22.3518 32.5082C22.7178 32.5579 23 32.8717 23 33.2514C23 33.6311 22.7178 33.9449 22.3518 33.9945L22.25 34.0014H16.75L16.5825 33.9963C15.1993 33.9132 14.0918 32.8078 14.0054 31.4255L14 31.2514L14 25.749L14.0068 25.6473C14.0565 25.2812 14.3703 24.999 14.75 24.999C15.1297 24.999 15.4435 25.2812 15.4932 25.6473L15.5 25.749L15.5 31.2514L15.509 31.398L21.3514 25.59C22.7654 24.176 25.0276 24.1273 26.5 25.4437ZM28.0235 18.012C29.1319 18.012 30.0304 18.9105 30.0304 20.0189C30.0304 21.1273 29.1319 22.0258 28.0235 22.0258C26.9152 22.0258 26.0166 21.1273 26.0166 20.0189C26.0166 18.9105 26.9152 18.012 28.0235 18.012ZM22.25 13.999C22.6642 13.999 23 14.3348 23 14.749C23 15.1287 22.7178 15.4425 22.3518 15.4922L22.25 15.499L16.75 15.499C16.1028 15.499 15.5705 15.9909 15.5065 16.6212L15.5 16.749L15.5 22.2514C15.5 22.6656 15.1642 23.0014 14.75 23.0014C14.3703 23.0014 14.0565 22.7192 14.0068 22.3531L14 22.2514L14 16.749C14 15.2865 15.1417 14.0906 16.5825 14.004L16.75 13.999L22.25 13.999ZM31.25 13.999L31.4175 14.004C32.8007 14.0872 33.9082 15.1926 33.9946 16.5749L34 16.749V22.2514L33.9932 22.3531C33.9435 22.7192 33.6297 23.0014 33.25 23.0014C32.8703 23.0014 32.5565 22.7192 32.5068 22.3531L32.5 22.2514V16.749L32.4935 16.6212C32.4338 16.0329 31.9661 15.5652 31.3778 15.5055L31.25 15.499L25.75 15.499L25.6482 15.4922C25.2822 15.4425 25 15.1287 25 14.749C25 14.3693 25.2822 14.0555 25.6482 14.0059L25.75 13.999L31.25 13.999ZM28.0235 19.512C27.7436 19.512 27.5166 19.7389 27.5166 20.0189C27.5166 20.2988 27.7436 20.5258 28.0235 20.5258C28.3035 20.5258 28.5304 20.2988 28.5304 20.0189C28.5304 19.7389 28.3035 19.512 28.0235 19.512Z" fill="#858585"/>
</svg>
